<?xml version="1.0" encoding="UTF-8" standalone="no"?>
<!-- Created with Inkscape (http://www.inkscape.org/) -->
<svg
   xmlns:svg="http://www.w3.org/2000/svg"
   xmlns="http://www.w3.org/2000/svg"
   version="1.0"
   width="80.015617"
   height="95.34375"
   id="svg2">
  <defs
     id="defs4" />
  <g
     transform="translate(-175.78795,-342.73273)"
     id="layer1">
    <path
       d="M 254.74889,342.73273 L 255.80357,365.0921 L 253.1317,365.0921 C 252.61599,361.15468 251.91287,358.34218 251.02232,356.6546 C 249.56912,353.93594 247.63553,351.93203 245.22154,350.64288 C 242.80741,349.35391 239.63163,348.70938 235.6942,348.70929 L 222.26451,348.70929 L 222.26451,421.55304 C 222.26446,427.41243 222.89727,431.06867 224.16295,432.52179 C 225.94414,434.49054 228.68633,435.47492 232.38951,435.47491 L 235.6942,435.47491 L 235.6942,438.07648 L 195.26451,438.07648 L 195.26451,435.47491 L 198.63951,435.47491 C 202.67073,435.47492 205.5301,434.25617 207.21764,431.81866 C 208.24885,430.31867 208.76447,426.8968 208.76451,421.55304 L 208.76451,348.70929 L 197.30357,348.70929 C 192.85043,348.70938 189.68637,349.0375 187.81139,349.69366 C 185.37387,350.58438 183.28794,352.29531 181.55357,354.82648 C 179.81919,357.35781 178.78794,360.77968 178.45982,365.0921 L 175.78795,365.0921 L 176.91295,342.73273 L 254.74889,342.73273 z"
       id="text2383"
       style="font-size:144px;font-style:normal;font-variant:normal;font-weight:normal;font-stretch:normal;text-align:start;line-height:125%;writing-mode:lr-tb;text-anchor:start;fill:#000000;fill-opacity:1;stroke:none;stroke-width:1px;stroke-linecap:butt;stroke-linejoin:miter;stroke-opacity:1;font-family:Times New Roman;-inkscape-font-specification:Times New Roman" />
  </g>
</svg>
